<?xml version="1.0" encoding="utf-8"?>
<!-- Generator: Adobe Illustrator 18.1.0, SVG Export Plug-In . SVG Version: 6.00 Build 0)  -->
<svg version="1.1" id="Layer_1" xmlns:sketch="http://www.bohemiancoding.com/sketch/ns"
	 xmlns="http://www.w3.org/2000/svg" xmlns:xlink="http://www.w3.org/1999/xlink" x="0px" y="0px" viewBox="169 30 437 42"
	 enable-background="new 169 30 437 42" xml:space="preserve">
<title>Shape</title>
<desc>Created with Sketch.</desc>
<g id="Page-1" sketch:type="MSPage">
	<path id="Shape_1_" sketch:type="MSShapeGroup" fill="none" stroke="#000000" stroke-miterlimit="10" d="M163.3,67.1
		c0,0-0.8,0.8,7.6-2.2c12.3-4.4,24.4-9.5,36.2-14.9c16.4-7.5,33-9.9,50.1-2.9c9.1,3.7,17.9,8.3,26.8,12.5
		c13.9,6.4,28.3,9.8,43.2,4.6c9.8-3.4,19.1-7.9,28.4-12.5c17.2-8.5,34.9-12.2,53.4-4.6c9.4,3.8,18.5,8.5,27.8,12.8
		c13.4,6.2,27.3,9.3,41.8,4.6c8.7-2.9,17-6.9,25.3-10.8c9.9-4.6,19.7-9.3,30.8-10.4c13.5-1.4,25.6,3,37.4,8.6
		c9.1,4.3,18.2,8.5,27.5,12.1c5.6,2.2,12.1,3.3,12.1,3.3"/>
</g>
</svg>
