<?xml version="1.0" encoding="UTF-8" standalone="no"?>
<svg width="1366px" height="532px" viewBox="0 0 1366 532" version="1.1" xmlns="http://www.w3.org/2000/svg" xmlns:xlink="http://www.w3.org/1999/xlink" xmlns:sketch="http://www.bohemiancoding.com/sketch/ns">
    <!-- Generator: Sketch 3.5.2 (25235) - http://www.bohemiancoding.com/sketch -->
    <title>Shape</title>
    <desc>Created with Sketch.</desc>
    <defs></defs>
    <g id="Portal" stroke="none" stroke-width="1" fill="none" fill-rule="evenodd" sketch:type="MSPage">
        <g id="Login" sketch:type="MSArtboardGroup" transform="translate(-51.000000, -236.000000)" fill="#008BD9" opacity="0.165986474">
            <g id="Content" sketch:type="MSLayerGroup" transform="translate(51.000000, 122.000000)">
                <g id="Thumbnail-2" transform="translate(-373.000000, -226.000000)" sketch:type="MSShapeGroup">
                    <path d="M1027.1,1379.1 L1016.3,1379.1 L1016.3,1368.3 L1027.1,1368.3 L1027.1,1379.1 L1027.1,1379.1 Z M1027.2,1346.4 L1016.2,1346.4 L1016.2,1357.4 L1027.2,1357.4 L1027.2,1346.4 L1027.2,1346.4 Z M1027.3,1324.4 L1016.1,1324.4 L1016.1,1335.6 L1027.3,1335.6 L1027.3,1324.4 L1027.3,1324.4 Z M1027.4,1302.5 L1016,1302.5 L1016,1313.9 L1027.4,1313.9 L1027.4,1302.5 L1027.4,1302.5 Z M1027.6,1236.7 L1015.6,1236.7 L1015.6,1248.7 L1027.6,1248.7 L1027.6,1236.7 L1027.6,1236.7 Z M1027.7,1214.8 L1015.5,1214.8 L1015.5,1227 L1027.7,1227 L1027.7,1214.8 L1027.7,1214.8 Z M1027.8,1192.9 L1015.5,1192.9 L1015.5,1205.2 L1027.9,1205.2 L1027.9,1192.9 L1027.8,1192.9 Z M1027.9,1171 L1015.4,1171 L1015.4,1183.5 L1027.9,1183.5 L1027.9,1171 L1027.9,1171 Z M1028,1149.1 L1015.3,1149.1 L1015.3,1161.8 L1028,1161.8 L1028,1149.1 L1028,1149.1 Z M1028.2,1105.2 L1015.1,1105.2 L1015.1,1118.3 L1028.2,1118.3 L1028.2,1105.2 L1028.2,1105.2 Z M1028.3,1083.3 L1015,1083.3 L1015,1096.6 L1028.3,1096.6 L1028.3,1083.3 L1028.3,1083.3 Z M1028.4,1061.4 L1014.9,1061.4 L1014.9,1074.9 L1028.4,1074.9 L1028.4,1061.4 L1028.4,1061.4 Z M1028.5,1039.4 L1014.8,1039.4 L1014.8,1053.1 L1028.5,1053.1 L1028.5,1039.4 L1028.5,1039.4 Z M1028.6,1017.5 L1014.7,1017.5 L1014.7,1031.3 L1028.6,1031.3 L1028.6,1017.5 L1028.6,1017.5 Z M1028.7,995.6 L1014.7,995.6 L1014.7,1009.6 L1028.7,1009.6 L1028.7,995.6 L1028.7,995.6 Z M1028.8,973.7 L1014.5,973.7 L1014.5,987.9 L1028.7,987.9 L1028.7,973.7 L1028.8,973.7 Z M1028.9,951.8 L1014.5,951.8 L1014.5,966.2 L1028.9,966.2 L1028.9,951.8 L1028.9,951.8 Z M1029,929.8 L1014.4,929.8 L1014.4,944.4 L1029,944.4 L1029,929.8 L1029,929.8 Z M1029.1,907.9 L1014.3,907.9 L1014.3,922.7 L1029.1,922.7 L1029.1,907.9 L1029.1,907.9 Z M1029.1,886 L1014.1,886 L1014.1,901 L1029.1,901 L1029.1,886 L1029.1,886 Z M1029.2,864.1 L1014,864.1 L1014,879.3 L1029.2,879.3 L1029.2,864.1 L1029.2,864.1 Z M1029.3,842.1 L1013.9,842.1 L1013.9,857.5 L1029.3,857.5 L1029.3,842.1 L1029.3,842.1 Z M1029.4,820.2 L1013.8,820.2 L1013.8,835.7 L1029.4,835.7 L1029.4,820.2 L1029.4,820.2 Z M1029.5,798.3 L1013.8,798.3 L1013.8,814 L1029.5,814 L1029.5,798.3 L1029.5,798.3 Z M1029.6,776.4 L1013.7,776.4 L1013.7,792.3 L1029.6,792.3 L1029.6,776.4 L1029.6,776.4 Z M1029.7,754.5 L1013.6,754.5 L1013.6,770.6 L1029.7,770.6 L1029.7,754.5 L1029.7,754.5 Z M1029.8,732.5 L1013.5,732.5 L1013.5,748.8 L1029.8,748.8 L1029.8,732.5 L1029.8,732.5 Z M1030,688.7 L1013.3,688.7 L1013.3,705.4 L1030,705.4 L1030,688.7 L1030,688.7 Z M1030.1,666.8 L1013.2,666.8 L1013.2,683.7 L1030.1,683.7 L1030.1,666.8 L1030.1,666.8 Z M1030.2,644.8 L1013.1,644.8 L1013.1,661.8 L1030.2,661.8 L1030.2,644.8 L1030.2,644.8 Z M1030.3,622.9 L1013.1,622.9 L1013.1,640.1 L1030.3,640.1 L1030.3,622.9 L1030.3,622.9 Z M1046.2,1390.2 L1035.5,1390.2 L1035.5,1400.8 L1046.2,1400.8 L1046.2,1390.2 L1046.2,1390.2 Z M1046.5,1324.4 L1035.3,1324.4 L1035.3,1335.6 L1046.5,1335.6 L1046.5,1324.4 L1046.5,1324.4 Z M1046.7,1280.6 L1035.1,1280.6 L1035.1,1292.2 L1046.7,1292.2 L1046.7,1280.6 L1046.7,1280.6 Z M1046.8,1258.7 L1035,1258.7 L1035,1270.5 L1046.8,1270.5 L1046.8,1258.7 L1046.8,1258.7 Z M1046.9,1236.7 L1034.9,1236.7 L1034.9,1248.7 L1046.9,1248.7 L1046.9,1236.7 L1046.9,1236.7 Z M1047.2,1171 L1034.7,1171 L1034.7,1183.5 L1047.2,1183.5 L1047.2,1171 L1047.2,1171 Z M1047.3,1149.1 L1034.5,1149.1 L1034.5,1161.8 L1047.2,1161.8 L1047.2,1149.1 L1047.3,1149.1 Z M1047.4,1127.1 L1034.5,1127.1 L1034.5,1140 L1047.4,1140 L1047.4,1127.1 L1047.4,1127.1 Z M1047.6,1083.3 L1034.3,1083.3 L1034.3,1096.6 L1047.6,1096.6 L1047.6,1083.3 L1047.6,1083.3 Z M1047.6,1061.4 L1034.1,1061.4 L1034.1,1074.9 L1047.6,1074.9 L1047.6,1061.4 L1047.6,1061.4 Z M1047.8,1017.5 L1033.9,1017.5 L1033.9,1031.3 L1047.8,1031.3 L1047.8,1017.5 L1047.8,1017.5 Z M1048,973.7 L1033.8,973.7 L1033.8,987.9 L1048,987.9 L1048,973.7 L1048,973.7 Z M1048.2,929.8 L1033.6,929.8 L1033.6,944.4 L1048.2,944.4 L1048.2,929.8 L1048.2,929.8 Z M1048.5,864.1 L1033.3,864.1 L1033.3,879.3 L1048.5,879.3 L1048.5,864.1 L1048.5,864.1 Z M1048.6,842.1 L1033.2,842.1 L1033.2,857.5 L1048.6,857.5 L1048.6,842.1 L1048.6,842.1 Z M1048.8,798.3 L1033.1,798.3 L1033.1,814 L1048.8,814 L1048.8,798.3 L1048.8,798.3 Z M1049,754.5 L1032.9,754.5 L1032.9,770.6 L1049,770.6 L1049,754.5 L1049,754.5 Z M1049.2,710.6 L1032.7,710.6 L1032.7,727.1 L1049.2,727.1 L1049.2,710.6 L1049.2,710.6 Z M1049.4,644.8 L1032.3,644.8 L1032.3,661.8 L1049.4,661.8 L1049.4,644.8 L1049.4,644.8 Z M1049.6,601 L1032.2,601 L1032.2,618.4 L1049.6,618.4 L1049.6,601 L1049.6,601 Z M1007.4,1390.2 L996.7,1390.2 L996.7,1400.8 L1007.4,1400.8 L1007.4,1390.2 L1007.4,1390.2 Z M1007.5,1368.3 L996.7,1368.3 L996.7,1379.1 L1007.5,1379.1 L1007.5,1368.3 L1007.5,1368.3 Z M1007.8,1302.5 L996.4,1302.5 L996.4,1313.9 L1007.8,1313.9 L1007.8,1302.5 L1007.8,1302.5 Z M1007.9,1280.6 L996.3,1280.6 L996.3,1292.2 L1007.9,1292.2 L1007.9,1280.6 L1007.9,1280.6 Z M1008,1258.7 L996.2,1258.7 L996.2,1270.5 L1008,1270.5 L1008,1258.7 L1008,1258.7 Z M1008.2,1214.8 L996,1214.8 L996,1227 L1008.2,1227 L1008.2,1214.8 L1008.2,1214.8 Z M1008.2,1192.9 L995.8,1192.9 L995.8,1205.2 L1008.2,1205.2 L1008.2,1192.9 L1008.2,1192.9 Z M1008.4,1149.1 L995.7,1149.1 L995.7,1161.8 L1008.4,1161.8 L1008.4,1149.1 L1008.4,1149.1 Z M1008.5,1127.1 L995.6,1127.1 L995.6,1140 L1008.5,1140 L1008.5,1127.1 L1008.5,1127.1 Z M1008.7,1083.3 L995.4,1083.3 L995.4,1096.6 L1008.7,1096.6 L1008.7,1083.3 L1008.7,1083.3 Z M1008.9,1039.4 L995.2,1039.4 L995.2,1053.1 L1008.9,1053.1 L1008.9,1039.4 L1008.9,1039.4 Z M1009,1017.5 L995.1,1017.5 L995.1,1031.3 L1009,1031.3 L1009,1017.5 L1009,1017.5 Z M1009.2,973.7 L995,973.7 L995,987.9 L1009.2,987.9 L1009.2,973.7 L1009.2,973.7 Z M1009.4,929.8 L994.8,929.8 L994.8,944.4 L1009.4,944.4 L1009.4,929.8 L1009.4,929.8 Z M1009.6,886 L994.6,886 L994.6,901 L1009.6,901 L1009.6,886 L1009.6,886 Z M1009.7,842.1 L994.3,842.1 L994.3,857.5 L1009.7,857.5 L1009.7,842.1 L1009.7,842.1 Z M1009.9,798.3 L994.2,798.3 L994.2,814 L1009.9,814 L1009.9,798.3 L1009.9,798.3 Z M1010.1,754.5 L994,754.5 L994,770.6 L1010.1,770.6 L1010.1,754.5 L1010.1,754.5 Z M1010.3,710.6 L993.8,710.6 L993.8,727.1 L1010.3,727.1 L1010.3,710.6 L1010.3,710.6 Z M1010.4,688.7 L993.7,688.7 L993.7,705.4 L1010.4,705.4 L1010.4,688.7 L1010.4,688.7 Z M1010.6,644.8 L993.5,644.8 L993.5,661.8 L1010.6,661.8 L1010.6,644.8 L1010.6,644.8 Z M1010.8,601 L993.4,601 L993.4,618.4 L1010.8,618.4 L1010.8,601 L1010.8,601 Z M989.6,1347.1 L980.1,1347.1 L980.1,1356.6 L989.6,1356.6 L989.6,1347.1 L989.6,1347.1 Z M989.8,1303.2 L980,1303.2 L980,1313 L989.8,1313 L989.8,1303.2 L989.8,1303.2 Z M990.1,1215.4 L979.6,1215.4 L979.6,1225.9 L990.1,1225.9 L990.1,1215.4 L990.1,1215.4 Z M990.2,1193.5 L979.6,1193.5 L979.6,1204.1 L990.2,1204.1 L990.2,1193.5 L990.2,1193.5 Z M990.4,1149.6 L979.4,1149.6 L979.4,1160.6 L990.4,1160.6 L990.4,1149.6 L990.4,1149.6 Z M990.5,1105.7 L979.2,1105.7 L979.2,1117 L990.5,1117 L990.5,1105.7 L990.5,1105.7 Z M990.6,1083.7 L979.1,1083.7 L979.1,1095.1 L990.6,1095.1 L990.6,1083.7 L990.6,1083.7 Z M990.8,1017.9 L978.9,1017.9 L978.9,1029.8 L990.8,1029.8 L990.8,1017.9 L990.8,1017.9 Z M990.9,996 L978.8,996 L978.8,1008.1 L990.9,1008.1 L990.9,996 L990.9,996 Z M991.1,952.1 L978.7,952.1 L978.7,964.5 L991.1,964.5 L991.1,952.1 L991.1,952.1 Z M991.3,908.2 L978.5,908.2 L978.5,920.9 L991.2,920.9 L991.2,908.2 L991.3,908.2 Z M991.3,886.3 L978.4,886.3 L978.4,899.2 L991.3,899.2 L991.3,886.3 L991.3,886.3 Z M991.7,816.9 L978.1,816.9 L978.1,830.5 L991.7,830.5 L991.7,816.9 L991.7,816.9 Z M991.8,736.3 L977.9,736.3 L977.9,750.2 L991.8,750.2 L991.8,736.3 L991.8,736.3 Z M992.1,688.8 L977.7,688.8 L977.7,703.2 L992.1,703.2 L992.1,688.8 L992.1,688.8 Z M992.2,644.9 L977.5,644.9 L977.5,659.6 L992.2,659.6 L992.2,644.9 L992.2,644.9 Z M992.3,622.9 L977.4,622.9 L977.4,637.7 L992.3,637.7 L992.3,622.9 L992.3,622.9 Z M992.4,601 L977.4,601 L977.4,616 L992.4,616 L992.4,601 L992.4,601 Z M1064.1,1369 L1054.8,1369 L1054.8,1378.3 L1064.1,1378.3 L1064.1,1369 L1064.1,1369 Z M1064.3,1325.1 L1054.6,1325.1 L1054.6,1334.8 L1064.3,1334.8 L1064.3,1325.1 L1064.3,1325.1 Z M1064.9,1171.5 L1054.1,1171.5 L1054.1,1182.3 L1064.9,1182.3 L1064.9,1171.5 L1064.9,1171.5 Z M1065,1127.6 L1053.9,1127.6 L1053.9,1138.7 L1065,1138.7 L1065,1127.6 L1065,1127.6 Z M1065.1,1105.7 L1053.8,1105.7 L1053.8,1117 L1065.1,1117 L1065.1,1105.7 L1065.1,1105.7 Z M1065.3,1061.8 L1053.7,1061.8 L1053.7,1073.4 L1065.3,1073.4 L1065.3,1061.8 L1065.3,1061.8 Z M1065.3,1039.9 L1053.5,1039.9 L1053.5,1051.7 L1065.3,1051.7 L1065.3,1039.9 L1065.3,1039.9 Z M1065.5,996 L1053.4,996 L1053.4,1008.1 L1065.5,1008.1 L1065.5,996 L1065.5,996 Z M1065.7,952.1 L1053.3,952.1 L1053.3,964.5 L1065.7,964.5 L1065.7,952.1 L1065.7,952.1 Z M1065.9,886.3 L1053,886.3 L1053,899.2 L1065.9,899.2 L1065.9,886.3 L1065.9,886.3 Z M1066.1,842.4 L1052.9,842.4 L1052.9,855.6 L1066.1,855.6 L1066.1,842.4 L1066.1,842.4 Z M1066.1,820.4 L1052.7,820.4 L1052.7,833.8 L1066.1,833.8 L1066.1,820.4 L1066.1,820.4 Z M1066.3,776.5 L1052.6,776.5 L1052.6,790.2 L1066.3,790.2 L1066.3,776.5 L1066.3,776.5 Z M1066.5,732.7 L1052.4,732.7 L1052.4,746.7 L1066.5,746.7 L1066.5,732.7 L1066.5,732.7 Z M1066.6,688.8 L1052.2,688.8 L1052.2,703.2 L1066.6,703.2 L1066.6,688.8 L1066.6,688.8 Z M1066.7,666.8 L1052.2,666.8 L1052.2,681.3 L1066.7,681.3 L1066.7,666.8 L1066.7,666.8 Z M1066.9,622.9 L1052,622.9 L1052,637.7 L1066.9,637.7 L1066.9,622.9 L1066.9,622.9 Z M1081,1390.9 L1071.8,1390.9 L1071.8,1400.1 L1081,1400.1 L1081,1390.9 L1081,1390.9 Z M1081.2,1347.1 L1071.7,1347.1 L1071.7,1356.6 L1081.2,1356.6 L1081.2,1347.1 L1081.2,1347.1 Z M1081.4,1281.2 L1071.4,1281.2 L1071.4,1291.2 L1081.4,1291.2 L1081.4,1281.2 L1081.4,1281.2 Z M1081.6,1237.3 L1071.3,1237.3 L1071.3,1247.6 L1081.6,1247.6 L1081.6,1237.3 L1081.6,1237.3 Z M1081.8,1193.5 L1071.2,1193.5 L1071.2,1204.1 L1081.8,1204.1 L1081.8,1193.5 L1081.8,1193.5 Z M1081.9,1149.6 L1070.9,1149.6 L1070.9,1160.6 L1081.9,1160.6 L1081.9,1149.6 L1081.9,1149.6 Z M1082,1127.6 L1070.9,1127.6 L1070.9,1138.7 L1082,1138.7 L1082,1127.6 L1082,1127.6 Z M1082.2,1083.7 L1070.7,1083.7 L1070.7,1095.1 L1082.2,1095.1 L1082.2,1083.7 L1082.2,1083.7 Z M1082.3,1039.9 L1070.5,1039.9 L1070.5,1051.7 L1082.3,1051.7 L1082.3,1039.9 L1082.3,1039.9 Z M1082.4,1017.9 L1070.5,1017.9 L1070.5,1029.8 L1082.4,1029.8 L1082.4,1017.9 L1082.4,1017.9 Z M1082.6,974 L1070.3,974 L1070.3,986.3 L1082.6,986.3 L1082.6,974 L1082.6,974 Z M1082.8,908.2 L1070,908.2 L1070,920.9 L1082.8,920.9 L1082.8,908.2 L1082.8,908.2 Z M1083,864.3 L1069.9,864.3 L1069.9,877.4 L1083,877.4 L1083,864.3 L1083,864.3 Z M1083.2,798.5 L1069.6,798.5 L1069.6,812 L1083.2,812 L1083.2,798.5 L1083.2,798.5 Z M1083.4,754.6 L1069.5,754.6 L1069.5,768.5 L1083.4,768.5 L1083.4,754.6 L1083.4,754.6 Z M1083.5,710.7 L1069.3,710.7 L1069.3,724.9 L1083.5,724.9 L1083.5,710.7 L1083.5,710.7 Z M1083.6,688.8 L1069.2,688.8 L1069.2,703.2 L1083.6,703.2 L1083.6,688.8 L1083.6,688.8 Z M1083.8,644.9 L1069.1,644.9 L1069.1,659.6 L1083.8,659.6 L1083.8,644.9 L1083.8,644.9 Z M1083.9,601 L1068.9,601 L1068.9,616 L1083.9,616 L1083.9,601 L1083.9,601 Z M969.2,1385 L961.1,1385 L961.1,1393.1 L969.2,1393.1 L969.2,1385 L969.2,1385 Z M969.3,1341.5 L960.9,1341.5 L960.9,1349.9 L969.3,1349.9 L969.3,1341.5 L969.3,1341.5 Z M969.4,1319.7 L960.9,1319.7 L960.9,1328.2 L969.4,1328.2 L969.4,1319.7 L969.4,1319.7 Z M969.6,1276.1 L960.8,1276.1 L960.8,1284.9 L969.6,1284.9 L969.6,1276.1 L969.6,1276.1 Z M969.7,1232.6 L960.6,1232.6 L960.6,1241.7 L969.7,1241.7 L969.7,1232.6 L969.7,1232.6 Z M969.8,1210.8 L960.6,1210.8 L960.6,1220 L969.8,1220 L969.8,1210.8 L969.8,1210.8 Z M969.9,1167.2 L960.4,1167.2 L960.4,1176.7 L969.9,1176.7 L969.9,1167.2 L969.9,1167.2 Z M970,1145.5 L960.3,1145.5 L960.3,1155.2 L970,1155.2 L970,1145.5 L970,1145.5 Z M970.2,1080.1 L960.1,1080.1 L960.1,1090.2 L970.2,1090.2 L970.2,1080.1 L970.2,1080.1 Z M970.3,1036.6 L959.9,1036.6 L959.9,1047 L970.3,1047 L970.3,1036.6 L970.3,1036.6 Z M970.4,1014.8 L959.9,1014.8 L959.9,1025.3 L970.4,1025.3 L970.4,1014.8 L970.4,1014.8 Z M970.6,971.2 L959.8,971.2 L959.8,982 L970.6,982 L970.6,971.2 L970.6,971.2 Z M970.7,927.7 L959.6,927.7 L959.6,938.8 L970.7,938.8 L970.7,927.7 L970.7,927.7 Z M970.8,884.1 L959.5,884.1 L959.5,895.5 L970.9,895.5 L970.9,884.1 L970.8,884.1 Z M970.9,862.3 L959.4,862.3 L959.4,873.8 L970.9,873.8 L970.9,862.3 L970.9,862.3 Z M971,840.6 L959.3,840.6 L959.3,852.3 L971,852.3 L971,840.6 L971,840.6 Z M971.1,818.8 L959.3,818.8 L959.3,830.6 L971.1,830.6 L971.1,818.8 L971.1,818.8 Z M971.2,775.2 L959.1,775.2 L959.1,787.3 L971.2,787.3 L971.2,775.2 L971.2,775.2 Z M971.3,753.5 L959.1,753.5 L959.1,765.7 L971.3,765.7 L971.3,753.5 L971.3,753.5 Z M971.4,709.9 L958.9,709.9 L958.9,722.4 L971.4,722.4 L971.4,709.9 L971.4,709.9 Z M971.5,688.1 L958.8,688.1 L958.8,700.8 L971.5,700.8 L971.5,688.1 L971.5,688.1 Z M971.6,666.3 L958.8,666.3 L958.8,679.1 L971.6,679.1 L971.6,666.3 L971.6,666.3 Z M971.6,644.6 L958.6,644.6 L958.6,657.6 L971.6,657.6 L971.6,644.6 L971.6,644.6 Z M971.8,601 L958.5,601 L958.5,614.2 L971.7,614.2 L971.7,601 L971.8,601 Z M1101.4,1189 L1092,1189 L1092,1198.4 L1101.4,1198.4 L1101.4,1189 L1101.4,1189 Z M1102.1,993 L1091.4,993 L1091.4,1003.7 L1102.1,1003.7 L1102.1,993 L1102.1,993 Z M1102.3,927.7 L1091.2,927.7 L1091.2,938.8 L1102.3,938.8 L1102.3,927.7 L1102.3,927.7 Z M1102.6,840.6 L1090.9,840.6 L1090.9,852.3 L1102.6,852.3 L1102.6,840.6 L1102.6,840.6 Z M1102.6,818.8 L1090.8,818.8 L1090.8,830.6 L1102.6,830.6 L1102.6,818.8 L1102.6,818.8 Z M1102.7,797 L1090.7,797 L1090.7,809 L1102.7,809 L1102.7,797 L1102.7,797 Z M1102.8,775.2 L1090.7,775.2 L1090.7,787.3 L1102.8,787.3 L1102.8,775.2 L1102.8,775.2 Z M1102.9,731.7 L1090.5,731.7 L1090.5,744.1 L1102.9,744.1 L1102.9,731.7 L1102.9,731.7 Z M1103,709.9 L1090.5,709.9 L1090.5,722.4 L1103,722.4 L1103,709.9 L1103,709.9 Z M1103.1,666.3 L1090.3,666.3 L1090.3,679.1 L1103.1,679.1 L1103.1,666.3 L1103.1,666.3 Z M1103.2,644.6 L1090.2,644.6 L1090.2,657.6 L1103.2,657.6 L1103.2,644.6 L1103.2,644.6 Z M1103.3,622.8 L1090.2,622.8 L1090.2,635.9 L1103.3,635.9 L1103.3,622.8 L1103.3,622.8 Z M1119.3,1385 L1111.2,1385 L1111.2,1393.1 L1119.3,1393.1 L1119.3,1385 L1119.3,1385 Z M1119.4,1363.3 L1111.2,1363.3 L1111.2,1371.5 L1119.4,1371.5 L1119.4,1363.3 L1119.4,1363.3 Z M1119.6,1319.7 L1111.1,1319.7 L1111.1,1328.2 L1119.6,1328.2 L1119.6,1319.7 L1119.6,1319.7 Z M1119.7,1276.1 L1110.9,1276.1 L1110.9,1284.9 L1119.7,1284.9 L1119.7,1276.1 L1119.7,1276.1 Z M1119.9,1210.8 L1110.7,1210.8 L1110.7,1220 L1119.9,1220 L1119.9,1210.8 L1119.9,1210.8 Z M1120.1,1167.2 L1110.6,1167.2 L1110.6,1176.7 L1120.1,1176.7 L1120.1,1167.2 L1120.1,1167.2 Z M1120.2,1123.7 L1110.4,1123.7 L1110.4,1133.5 L1120.2,1133.5 L1120.2,1123.7 L1120.2,1123.7 Z M1120.3,1080.1 L1110.2,1080.1 L1110.2,1090.2 L1120.3,1090.2 L1120.3,1080.1 L1120.3,1080.1 Z M1120.4,1058.4 L1110.2,1058.4 L1110.2,1068.6 L1120.4,1068.6 L1120.4,1058.4 L1120.4,1058.4 Z M1120.6,1014.8 L1110.1,1014.8 L1110.1,1025.3 L1120.6,1025.3 L1120.6,1014.8 L1120.6,1014.8 Z M1120.7,971.2 L1109.9,971.2 L1109.9,982 L1120.7,982 L1120.7,971.2 L1120.7,971.2 Z M1120.9,905.9 L1109.7,905.9 L1109.7,917.1 L1120.9,917.1 L1120.9,905.9 L1120.9,905.9 Z M1121.1,862.3 L1109.5,862.3 L1109.5,873.8 L1121,873.8 L1121,862.3 L1121.1,862.3 Z M1121.3,797 L1109.3,797 L1109.3,809 L1121.3,809 L1121.3,797 L1121.3,797 Z M1121.4,753.5 L1109.2,753.5 L1109.2,765.7 L1121.4,765.7 L1121.4,753.5 L1121.4,753.5 Z M1121.6,709.9 L1109.1,709.9 L1109.1,722.4 L1121.6,722.4 L1121.6,709.9 L1121.6,709.9 Z M1121.6,688.1 L1108.9,688.1 L1108.9,700.8 L1121.6,700.8 L1121.6,688.1 L1121.6,688.1 Z M1121.8,644.6 L1108.8,644.6 L1108.8,657.6 L1121.8,657.6 L1121.8,644.6 L1121.8,644.6 Z M1121.9,601 L1108.7,601 L1108.7,614.2 L1121.9,614.2 L1121.9,601 L1121.9,601 Z M1139,971.2 L1128.2,971.2 L1128.2,982 L1139,982 L1139,971.2 L1139,971.2 Z M1139.2,927.7 L1128.1,927.7 L1128.1,938.8 L1139.2,938.8 L1139.2,927.7 L1139.2,927.7 Z M1139.3,884.1 L1127.9,884.1 L1127.9,895.5 L1139.3,895.5 L1139.3,884.1 L1139.3,884.1 Z M1139.5,840.6 L1127.8,840.6 L1127.8,852.3 L1139.5,852.3 L1139.5,840.6 L1139.5,840.6 Z M1139.5,818.8 L1127.7,818.8 L1127.7,830.6 L1139.5,830.6 L1139.5,818.8 L1139.5,818.8 Z M1139.6,797 L1127.6,797 L1127.6,809 L1139.6,809 L1139.6,797 L1139.6,797 Z M1139.8,731.7 L1127.4,731.7 L1127.4,744.1 L1139.8,744.1 L1139.8,731.7 L1139.8,731.7 Z M1139.9,709.9 L1127.4,709.9 L1127.4,722.4 L1139.9,722.4 L1139.9,709.9 L1139.9,709.9 Z M1140,688.1 L1127.3,688.1 L1127.3,700.8 L1140,700.8 L1140,688.1 L1140,688.1 Z M1140.1,644.6 L1127.1,644.6 L1127.1,657.6 L1140.1,657.6 L1140.1,644.6 L1140.1,644.6 Z M1140.2,622.8 L1127.1,622.8 L1127.1,635.9 L1140.2,635.9 L1140.2,622.8 L1140.2,622.8 Z M1140.2,601 L1127,601 L1127,614.2 L1140.2,614.2 L1140.2,601 L1140.2,601 Z M1155.4,1388.3 L1148.2,1388.3 L1148.2,1395.5 L1155.4,1395.5 L1155.4,1388.3 L1155.4,1388.3 Z M1155.5,1366.4 L1148.2,1366.4 L1148.2,1373.7 L1155.5,1373.7 L1155.5,1366.4 L1155.5,1366.4 Z M1155.6,1300.8 L1147.9,1300.8 L1147.9,1308.5 L1155.6,1308.5 L1155.6,1300.8 L1155.6,1300.8 Z M1155.8,1235.2 L1147.7,1235.2 L1147.7,1243.3 L1155.8,1243.3 L1155.8,1235.2 L1155.8,1235.2 Z M1156,1169.6 L1147.5,1169.6 L1147.5,1178.1 L1156,1178.1 L1156,1169.6 L1156,1169.6 Z M1156.3,1082.1 L1147.3,1082.1 L1147.3,1091.1 L1156.3,1091.1 L1156.3,1082.1 L1156.3,1082.1 Z M1156.5,1016.5 L1147.1,1016.5 L1147.1,1025.9 L1156.5,1025.9 L1156.5,1016.5 L1156.5,1016.5 Z M1156.7,929 L1146.8,929 L1146.8,938.9 L1156.7,938.9 L1156.7,929 L1156.7,929 Z M1156.9,863.4 L1146.6,863.4 L1146.6,873.7 L1156.9,873.7 L1156.9,863.4 L1156.9,863.4 Z M1157,841.6 L1146.6,841.6 L1146.6,852 L1157,852 L1157,841.6 L1157,841.6 Z M1157.1,819.7 L1146.5,819.7 L1146.5,830.2 L1157,830.2 L1157,819.7 L1157.1,819.7 Z M1157.2,776 L1146.4,776 L1146.4,786.8 L1157.2,786.8 L1157.2,776 L1157.2,776 Z M1157.2,754.1 L1146.3,754.1 L1146.3,765 L1157.2,765 L1157.2,754.1 L1157.2,754.1 Z M1157.3,732.2 L1146.3,732.2 L1146.3,743.2 L1157.3,743.2 L1157.3,732.2 L1157.3,732.2 Z M1157.4,688.5 L1146.1,688.5 L1146.1,699.8 L1157.4,699.8 L1157.4,688.5 L1157.4,688.5 Z M1157.5,666.6 L1146.1,666.6 L1146.1,678 L1157.5,678 L1157.5,666.6 L1157.5,666.6 Z M1157.6,644.7 L1146.1,644.7 L1146.1,656.2 L1157.6,656.2 L1157.6,644.7 L1157.6,644.7 Z M1157.7,601 L1145.9,601 L1145.9,612.8 L1157.7,612.8 L1157.7,601 L1157.7,601 Z M949.4,1366.4 L942.1,1366.4 L942.1,1373.7 L949.4,1373.7 L949.4,1366.4 L949.4,1366.4 Z M950.2,1104 L941.3,1104 L941.3,1112.9 L950.2,1112.9 L950.2,1104 L950.2,1104 Z M950.4,1016.5 L941,1016.5 L941,1025.9 L950.4,1025.9 L950.4,1016.5 L950.4,1016.5 Z M950.7,929 L940.8,929 L940.8,938.9 L950.7,938.9 L950.7,929 L950.7,929 Z M950.9,863.4 L940.6,863.4 L940.6,873.7 L950.9,873.7 L950.9,863.4 L950.9,863.4 Z M950.9,841.6 L940.5,841.6 L940.5,852 L950.9,852 L950.9,841.6 L950.9,841.6 Z M951.1,776 L940.3,776 L940.3,786.8 L951.1,786.8 L951.1,776 L951.1,776 Z M951.3,732.2 L940.3,732.2 L940.3,743.2 L951.3,743.2 L951.3,732.2 L951.3,732.2 Z M951.3,710.4 L940.1,710.4 L940.1,721.6 L951.3,721.6 L951.3,710.4 L951.3,710.4 Z M951.5,666.6 L940.1,666.6 L940.1,678 L951.5,678 L951.5,666.6 L951.5,666.6 Z M951.5,644.7 L940,644.7 L940,656.2 L951.5,656.2 L951.5,644.7 L951.5,644.7 Z M951.6,622.9 L939.9,622.9 L939.9,634.6 L951.6,634.6 L951.6,622.9 L951.6,622.9 Z M1172.5,1062.5 L1165.2,1062.5 L1165.2,1069.8 L1172.5,1069.8 L1172.5,1062.5 L1172.5,1062.5 Z M1173,842.7 L1164.7,842.7 L1164.7,851 L1173,851 L1173,842.7 L1173,842.7 Z M1173.1,798.8 L1164.6,798.8 L1164.6,807.3 L1173.1,807.3 L1173.1,798.8 L1173.1,798.8 Z M1173.2,754.8 L1164.5,754.8 L1164.5,763.5 L1173.2,763.5 L1173.2,754.8 L1173.2,754.8 Z M1173.3,710.9 L1164.4,710.9 L1164.4,719.8 L1173.3,719.8 L1173.3,710.9 L1173.3,710.9 Z M1173.4,688.9 L1164.4,688.9 L1164.4,697.9 L1173.4,697.9 L1173.4,688.9 L1173.4,688.9 Z M1173.5,623 L1164.2,623 L1164.2,632.3 L1173.5,632.3 L1173.5,623 L1173.5,623 Z M1191.1,1348.2 L1185.1,1348.2 L1185.1,1354.2 L1191.1,1354.2 L1191.1,1348.2 L1191.1,1348.2 Z M1191.2,1304.3 L1185,1304.3 L1185,1310.5 L1191.2,1310.5 L1191.2,1304.3 L1191.2,1304.3 Z M1191.3,1260.3 L1184.9,1260.3 L1184.9,1266.7 L1191.3,1266.7 L1191.3,1260.3 L1191.3,1260.3 Z M1191.4,1216.3 L1184.8,1216.3 L1184.8,1222.9 L1191.4,1222.9 L1191.4,1216.3 L1191.4,1216.3 Z M1191.4,1194.4 L1184.7,1194.4 L1184.7,1201.1 L1191.4,1201.1 L1191.4,1194.4 L1191.4,1194.4 Z M1191.6,1128.4 L1184.6,1128.4 L1184.6,1135.4 L1191.6,1135.4 L1191.6,1128.4 L1191.6,1128.4 Z M1191.8,1040.5 L1184.4,1040.5 L1184.4,1047.9 L1191.8,1047.9 L1191.8,1040.5 L1191.8,1040.5 Z M1191.9,974.6 L1184.2,974.6 L1184.2,982.3 L1191.9,982.3 L1191.9,974.6 L1191.9,974.6 Z M1192.1,908.7 L1184.1,908.7 L1184.1,916.7 L1192.1,916.7 L1192.1,908.7 L1192.1,908.7 Z M1192.2,864.7 L1184,864.7 L1184,872.9 L1192.2,872.9 L1192.2,864.7 L1192.2,864.7 Z M1192.3,820.8 L1183.9,820.8 L1183.9,829.2 L1192.3,829.2 L1192.3,820.8 L1192.3,820.8 Z M1192.4,754.8 L1183.7,754.8 L1183.7,763.5 L1192.4,763.5 L1192.4,754.8 L1192.4,754.8 Z M1192.6,710.9 L1183.7,710.9 L1183.7,719.8 L1192.6,719.8 L1192.6,710.9 L1192.6,710.9 Z M1192.6,688.9 L1183.6,688.9 L1183.6,697.9 L1192.6,697.9 L1192.6,688.9 L1192.6,688.9 Z M1192.7,666.9 L1183.6,666.9 L1183.6,676 L1192.7,676 L1192.7,666.9 L1192.7,666.9 Z M1192.7,645 L1183.5,645 L1183.5,654.2 L1192.7,654.2 L1192.7,645 L1192.7,645 Z M1192.8,601 L1183.4,601 L1183.4,610.4 L1192.8,610.4 L1192.8,601 L1192.8,601 Z M931.8,1326.2 L925.7,1326.2 L925.7,1332.3 L931.8,1332.3 L931.8,1326.2 L931.8,1326.2 Z M931.9,1282.3 L925.6,1282.3 L925.6,1288.6 L931.9,1288.6 L931.9,1282.3 L931.9,1282.3 Z M932.1,1216.3 L925.5,1216.3 L925.5,1222.9 L932.1,1222.9 L932.1,1216.3 L932.1,1216.3 Z M932.5,1040.5 L925.1,1040.5 L925.1,1047.9 L932.5,1047.9 L932.5,1040.5 L932.5,1040.5 Z M932.5,1018.6 L925,1018.6 L925,1026.1 L932.5,1026.1 L932.5,1018.6 L932.5,1018.6 Z M932.7,952.6 L924.9,952.6 L924.9,960.4 L932.7,960.4 L932.7,952.6 L932.7,952.6 Z M932.9,864.7 L924.7,864.7 L924.7,872.9 L932.9,872.9 L932.9,864.7 L932.9,864.7 Z M932.9,842.7 L924.6,842.7 L924.6,851 L932.9,851 L932.9,842.7 L932.9,842.7 Z M933,798.8 L924.5,798.8 L924.5,807.3 L933,807.3 L933,798.8 L933,798.8 Z M933.1,754.8 L924.4,754.8 L924.4,763.5 L933.1,763.5 L933.1,754.8 L933.1,754.8 Z M933.2,732.9 L924.4,732.9 L924.4,741.7 L933.2,741.7 L933.2,732.9 L933.2,732.9 Z M933.3,688.9 L924.3,688.9 L924.3,697.9 L933.3,697.9 L933.3,688.9 L933.3,688.9 Z M933.4,645 L924.2,645 L924.2,654.2 L933.4,654.2 L933.4,645 L933.4,645 Z M933.5,601 L924.1,601 L924.1,610.4 L933.5,610.4 L933.5,601 L933.5,601 Z M914.1,1216.3 L907.5,1216.3 L907.5,1222.9 L914.1,1222.9 L914.1,1216.3 L914.1,1216.3 Z M914.2,1194.4 L907.5,1194.4 L907.5,1201.1 L914.2,1201.1 L914.2,1194.4 L914.2,1194.4 Z M914.3,1128.4 L907.3,1128.4 L907.3,1135.4 L914.3,1135.4 L914.3,1128.4 L914.3,1128.4 Z M914.4,1106.5 L907.3,1106.5 L907.3,1113.6 L914.4,1113.6 L914.4,1106.5 L914.4,1106.5 Z M914.6,1018.6 L907.1,1018.6 L907.1,1026.1 L914.6,1026.1 L914.6,1018.6 L914.6,1018.6 Z M914.6,996.6 L907,996.6 L907,1004.2 L914.6,1004.2 L914.6,996.6 L914.6,996.6 Z M914.8,930.7 L906.9,930.7 L906.9,938.6 L914.8,938.6 L914.8,930.7 L914.8,930.7 Z M914.9,886.7 L906.8,886.7 L906.8,894.8 L914.9,894.8 L914.9,886.7 L914.9,886.7 Z M914.9,864.7 L906.7,864.7 L906.7,872.9 L914.9,872.9 L914.9,864.7 L914.9,864.7 Z M915.4,666.9 L906.3,666.9 L906.3,676 L915.4,676 L915.4,666.9 L915.4,666.9 Z M915.5,623 L906.2,623 L906.2,632.3 L915.5,632.3 L915.5,623 L915.5,623 Z M1226.3,1106.3 L1222.5,1106.3 L1222.5,1110.1 L1226.3,1110.1 L1226.3,1106.3 L1226.3,1106.3 Z M1226.4,1040.4 L1222.4,1040.4 L1222.4,1044.4 L1226.4,1044.4 L1226.4,1040.4 L1226.4,1040.4 Z M1226.4,1018.4 L1222.3,1018.4 L1222.3,1022.5 L1226.4,1022.5 L1226.4,1018.4 L1226.4,1018.4 Z M1226.5,952.5 L1222.3,952.5 L1222.3,956.7 L1226.5,956.7 L1226.5,952.5 L1226.5,952.5 Z M1226.5,908.6 L1222.2,908.6 L1222.2,912.9 L1226.5,912.9 L1226.5,908.6 L1226.5,908.6 Z M1226.6,864.6 L1222.1,864.6 L1222.1,869.1 L1226.6,869.1 L1226.6,864.6 L1226.6,864.6 Z M1226.7,798.7 L1222.1,798.7 L1222.1,803.3 L1226.7,803.3 L1226.7,798.7 L1226.7,798.7 Z M1226.7,732.8 L1221.9,732.8 L1221.9,737.6 L1226.7,737.6 L1226.7,732.8 L1226.7,732.8 Z M1226.8,688.9 L1221.9,688.9 L1221.9,693.8 L1226.8,693.8 L1226.8,688.9 L1226.8,688.9 Z M1226.9,644.9 L1221.9,644.9 L1221.9,649.9 L1226.9,649.9 L1226.9,644.9 L1226.9,644.9 Z M1226.9,601 L1221.8,601 L1221.8,606.1 L1226.9,606.1 L1226.9,601 L1226.9,601 Z M1265.4,1020.8 L1261.3,1020.8 L1261.3,1024.9 L1265.4,1024.9 L1265.4,1020.8 L1265.4,1020.8 Z M1265.4,976.6 L1261.2,976.6 L1261.2,980.8 L1265.4,980.8 L1265.4,976.6 L1265.4,976.6 Z M1265.5,910.3 L1261.2,910.3 L1261.2,914.6 L1265.5,914.6 L1265.5,910.3 L1265.5,910.3 Z M1265.6,844 L1261.1,844 L1261.1,848.5 L1265.6,848.5 L1265.6,844 L1265.6,844 Z M1265.7,799.8 L1261.1,799.8 L1261.1,804.4 L1265.7,804.4 L1265.7,799.8 L1265.7,799.8 Z M1265.7,755.7 L1261,755.7 L1261,760.4 L1265.7,760.4 L1265.7,755.7 L1265.7,755.7 Z M1265.8,689.4 L1260.9,689.4 L1260.9,694.3 L1265.8,694.3 L1265.8,689.4 L1265.8,689.4 Z M1265.8,645.2 L1260.8,645.2 L1260.8,650.2 L1265.8,650.2 L1265.8,645.2 L1265.8,645.2 Z M1265.9,601 L1260.8,601 L1260.8,606.1 L1265.9,606.1 L1265.9,601 L1265.9,601 Z M894.3,1308 L891,1308 L891,1311.3 L894.3,1311.3 L894.3,1308 L894.3,1308 Z M894.3,1285.9 L890.9,1285.9 L890.9,1289.3 L894.3,1289.3 L894.3,1285.9 L894.3,1285.9 Z M894.4,1219.6 L890.8,1219.6 L890.8,1223.2 L894.4,1223.2 L894.4,1219.6 L894.4,1219.6 Z M894.4,1197.5 L890.8,1197.5 L890.8,1201.1 L894.4,1201.1 L894.4,1197.5 L894.4,1197.5 Z M894.5,1153.3 L890.8,1153.3 L890.8,1157 L894.5,1157 L894.5,1153.3 L894.5,1153.3 Z M894.5,1131.2 L890.7,1131.2 L890.7,1135 L894.5,1135 L894.5,1131.2 L894.5,1131.2 Z M894.6,1109.1 L890.8,1109.1 L890.8,1112.9 L894.6,1112.9 L894.6,1109.1 L894.6,1109.1 Z M894.7,1020.8 L890.6,1020.8 L890.6,1024.9 L894.7,1024.9 L894.7,1020.8 L894.7,1020.8 Z M894.7,998.7 L890.6,998.7 L890.6,1002.8 L894.7,1002.8 L894.7,998.7 L894.7,998.7 Z M894.8,932.4 L890.5,932.4 L890.5,936.7 L894.8,936.7 L894.8,932.4 L894.8,932.4 Z M894.8,888.2 L890.4,888.2 L890.4,892.6 L894.8,892.6 L894.8,888.2 L894.8,888.2 Z M895,755.7 L890.3,755.7 L890.3,760.4 L895,760.4 L895,755.7 L895,755.7 Z M895.1,711.5 L890.3,711.5 L890.3,716.3 L895.1,716.3 L895.1,711.5 L895.1,711.5 Z M895.1,689.4 L890.2,689.4 L890.2,694.3 L895.1,694.3 L895.1,689.4 L895.1,689.4 Z M895.1,645.2 L890.1,645.2 L890.1,650.2 L895.1,650.2 L895.1,645.2 L895.1,645.2 Z M895.2,601 L890.1,601 L890.1,606.1 L895.2,606.1 L895.2,601 L895.2,601 Z M1301.3,866.3 L1298.2,866.3 L1298.2,869.4 L1301.3,869.4 L1301.3,866.3 L1301.3,866.3 Z M1301.3,822.1 L1298.1,822.1 L1298.1,825.3 L1301.3,825.3 L1301.3,822.1 L1301.3,822.1 Z M1301.4,733.6 L1298.1,733.6 L1298.1,736.9 L1301.4,736.9 L1301.4,733.6 L1301.4,733.6 Z M1301.4,645.2 L1297.9,645.2 L1297.9,648.7 L1301.4,648.7 L1301.4,645.2 L1301.4,645.2 Z M1301.5,623.1 L1298,623.1 L1298,626.6 L1301.5,626.6 L1301.5,623.1 L1301.5,623.1 Z M856.6,976.8 L853.7,976.8 L853.7,979.7 L856.6,979.7 L856.6,976.8 L856.6,976.8 Z M856.7,910.5 L853.7,910.5 L853.7,913.5 L856.7,913.5 L856.7,910.5 L856.7,910.5 Z M856.7,888.4 L853.7,888.4 L853.7,891.4 L856.7,891.4 L856.7,888.4 L856.7,888.4 Z M856.7,844.2 L853.6,844.2 L853.6,847.3 L856.7,847.3 L856.7,844.2 L856.7,844.2 Z M856.8,755.7 L853.5,755.7 L853.5,759 L856.8,759 L856.8,755.7 L856.8,755.7 Z M856.8,733.6 L853.5,733.6 L853.5,736.9 L856.8,736.9 L856.8,733.6 L856.8,733.6 Z M856.8,711.5 L853.5,711.5 L853.5,714.8 L856.8,714.8 L856.8,711.5 L856.8,711.5 Z M856.9,645.2 L853.4,645.2 L853.4,648.7 L856.9,648.7 L856.9,645.2 L856.9,645.2 Z M856.9,623.1 L853.4,623.1 L853.4,626.6 L856.9,626.6 L856.9,623.1 L856.9,623.1 Z M1339.6,755.1 L1336.3,755.1 L1336.3,758.4 L1339.6,758.4 L1339.6,755.1 L1339.6,755.1 Z M1339.7,667.1 L1336.3,667.1 L1336.3,670.5 L1339.7,670.5 L1339.7,667.1 L1339.7,667.1 Z M1339.7,601 L1336.2,601 L1336.2,604.5 L1339.7,604.5 L1339.7,601 L1339.7,601 Z M812.3,865.2 L809.2,865.2 L809.2,868.3 L812.3,868.3 L812.3,865.2 L812.3,865.2 Z M812.4,777.2 L809.2,777.2 L809.2,780.4 L812.4,780.4 L812.4,777.2 L812.4,777.2 Z M812.4,755.1 L809.1,755.1 L809.1,758.4 L812.4,758.4 L812.4,755.1 L812.4,755.1 Z M812.5,711.1 L809.2,711.1 L809.2,714.4 L812.5,714.4 L812.5,711.1 L812.5,711.1 Z M812.5,689.1 L809.1,689.1 L809.1,692.5 L812.5,692.5 L812.5,689.1 L812.5,689.1 Z M812.5,645 L809,645 L809,648.5 L812.5,648.5 L812.5,645 L812.5,645 Z M812.6,623 L809.1,623 L809.1,626.5 L812.6,626.5 L812.6,623 L812.6,623 Z M812.6,601 L809.1,601 L809.1,604.5 L812.6,604.5 L812.6,601 Z M1027.6,-167.3 L1016.8,-167.3 L1016.8,-156.5 L1027.6,-156.5 L1027.6,-167.3 Z M1027.7,-134.6 L1016.7,-134.6 L1016.7,-145.6 L1027.7,-145.6 L1027.7,-134.6 Z M1027.8,-112.6 L1016.6,-112.6 L1016.6,-123.8 L1027.8,-123.8 L1027.8,-112.6 Z M1027.9,-90.7 L1016.5,-90.7 L1016.5,-102.1 L1027.9,-102.1 L1027.9,-90.7 Z M1028.1,-24.9 L1016.1,-24.9 L1016.1,-36.9 L1028.1,-36.9 L1028.1,-24.9 Z M1028.2,-3 L1016,-3 L1016,-15.2 L1028.2,-15.2 L1028.2,-3 Z M1028.3,18.9 L1016,18.9 L1016,6.6 L1028.4,6.6 L1028.4,18.9 L1028.3,18.9 Z M1028.4,40.8 L1015.9,40.8 L1015.9,28.3 L1028.4,28.3 L1028.4,40.8 Z M1028.5,62.7 L1015.8,62.7 L1015.8,50 L1028.5,50 L1028.5,62.7 Z M1028.7,106.6 L1015.6,106.6 L1015.6,93.5 L1028.7,93.5 L1028.7,106.6 Z M1028.8,128.5 L1015.5,128.5 L1015.5,115.2 L1028.8,115.2 L1028.8,128.5 Z M1028.9,150.4 L1015.4,150.4 L1015.4,136.9 L1028.9,136.9 L1028.9,150.4 Z M1029,172.4 L1015.3,172.4 L1015.3,158.7 L1029,158.7 L1029,172.4 Z M1029.1,194.3 L1015.2,194.3 L1015.2,180.5 L1029.1,180.5 L1029.1,194.3 Z M1029.2,216.2 L1015.2,216.2 L1015.2,202.2 L1029.2,202.2 L1029.2,216.2 Z M1029.3,238.1 L1015,238.1 L1015,223.9 L1029.2,223.9 L1029.2,238.1 L1029.3,238.1 Z M1029.4,260 L1015,260 L1015,245.6 L1029.4,245.6 L1029.4,260 Z M1029.5,282 L1014.9,282 L1014.9,267.4 L1029.5,267.4 L1029.5,282 Z M1029.6,303.9 L1014.8,303.9 L1014.8,289.1 L1029.6,289.1 L1029.6,303.9 Z M1029.6,325.8 L1014.6,325.8 L1014.6,310.8 L1029.6,310.8 L1029.6,325.8 Z M1029.7,347.7 L1014.5,347.7 L1014.5,332.5 L1029.7,332.5 L1029.7,347.7 Z M1029.8,369.7 L1014.4,369.7 L1014.4,354.3 L1029.8,354.3 L1029.8,369.7 Z M1029.9,391.6 L1014.3,391.6 L1014.3,376.1 L1029.9,376.1 L1029.9,391.6 Z M1030,413.5 L1014.3,413.5 L1014.3,397.8 L1030,397.8 L1030,413.5 Z M1030.1,435.4 L1014.2,435.4 L1014.2,419.5 L1030.1,419.5 L1030.1,435.4 Z M1030.2,457.3 L1014.1,457.3 L1014.1,441.2 L1030.2,441.2 L1030.2,457.3 Z M1030.3,479.3 L1014,479.3 L1014,463 L1030.3,463 L1030.3,479.3 Z M1030.5,523.1 L1013.8,523.1 L1013.8,506.4 L1030.5,506.4 L1030.5,523.1 Z M1030.6,545 L1013.7,545 L1013.7,528.1 L1030.6,528.1 L1030.6,545 Z M1030.7,567 L1013.6,567 L1013.6,550 L1030.7,550 L1030.7,567 Z M1030.8,588.9 L1013.6,588.9 L1013.6,571.7 L1030.8,571.7 L1030.8,588.9 Z M1046.7,-178.4 L1036,-178.4 L1036,-189 L1046.7,-189 L1046.7,-178.4 Z M1047,-112.6 L1035.8,-112.6 L1035.8,-123.8 L1047,-123.8 L1047,-112.6 Z M1047.2,-68.8 L1035.6,-68.8 L1035.6,-80.4 L1047.2,-80.4 L1047.2,-68.8 Z M1047.3,-46.9 L1035.5,-46.9 L1035.5,-58.7 L1047.3,-58.7 L1047.3,-46.9 Z M1047.4,-24.9 L1035.4,-24.9 L1035.4,-36.9 L1047.4,-36.9 L1047.4,-24.9 Z M1047.7,40.8 L1035.2,40.8 L1035.2,28.3 L1047.7,28.3 L1047.7,40.8 Z M1047.8,62.7 L1035,62.7 L1035,50 L1047.7,50 L1047.7,62.7 L1047.8,62.7 Z M1047.9,84.7 L1035,84.7 L1035,71.8 L1047.9,71.8 L1047.9,84.7 Z M1048.1,128.5 L1034.8,128.5 L1034.8,115.2 L1048.1,115.2 L1048.1,128.5 Z M1048.1,150.4 L1034.6,150.4 L1034.6,136.9 L1048.1,136.9 L1048.1,150.4 Z M1048.3,194.3 L1034.4,194.3 L1034.4,180.5 L1048.3,180.5 L1048.3,194.3 Z M1048.5,238.1 L1034.3,238.1 L1034.3,223.9 L1048.5,223.9 L1048.5,238.1 Z M1048.7,282 L1034.1,282 L1034.1,267.4 L1048.7,267.4 L1048.7,282 Z M1049,347.7 L1033.8,347.7 L1033.8,332.5 L1049,332.5 L1049,347.7 Z M1049.1,369.7 L1033.7,369.7 L1033.7,354.3 L1049.1,354.3 L1049.1,369.7 Z M1049.3,413.5 L1033.6,413.5 L1033.6,397.8 L1049.3,397.8 L1049.3,413.5 Z M1049.5,457.3 L1033.4,457.3 L1033.4,441.2 L1049.5,441.2 L1049.5,457.3 Z M1049.7,501.2 L1033.2,501.2 L1033.2,484.7 L1049.7,484.7 L1049.7,501.2 Z M1049.9,567 L1032.8,567 L1032.8,550 L1049.9,550 L1049.9,567 Z M1050.1,610.8 L1032.7,610.8 L1032.7,593.4 L1050.1,593.4 L1050.1,610.8 Z M1007.9,-178.4 L997.2,-178.4 L997.2,-189 L1007.9,-189 L1007.9,-178.4 Z M1008,-156.5 L997.2,-156.5 L997.2,-167.3 L1008,-167.3 L1008,-156.5 Z M1008.3,-90.7 L996.9,-90.7 L996.9,-102.1 L1008.3,-102.1 L1008.3,-90.7 Z M1008.4,-68.8 L996.8,-68.8 L996.8,-80.4 L1008.4,-80.4 L1008.4,-68.8 Z M1008.5,-46.9 L996.7,-46.9 L996.7,-58.7 L1008.5,-58.7 L1008.5,-46.9 Z M1008.7,-3 L996.5,-3 L996.5,-15.2 L1008.7,-15.2 L1008.7,-3 Z M1008.7,18.9 L996.3,18.9 L996.3,6.6 L1008.7,6.6 L1008.7,18.9 Z M1008.9,62.7 L996.2,62.7 L996.2,50 L1008.9,50 L1008.9,62.7 Z M1009,84.7 L996.1,84.7 L996.1,71.8 L1009,71.8 L1009,84.7 Z M1009.2,128.5 L995.9,128.5 L995.9,115.2 L1009.2,115.2 L1009.2,128.5 Z M1009.4,172.4 L995.7,172.4 L995.7,158.7 L1009.4,158.7 L1009.4,172.4 Z M1009.5,194.3 L995.6,194.3 L995.6,180.5 L1009.5,180.5 L1009.5,194.3 Z M1009.7,238.1 L995.5,238.1 L995.5,223.9 L1009.7,223.9 L1009.7,238.1 Z M1009.9,282 L995.3,282 L995.3,267.4 L1009.9,267.4 L1009.9,282 Z M1010.1,325.8 L995.1,325.8 L995.1,310.8 L1010.1,310.8 L1010.1,325.8 Z M1010.2,369.7 L994.8,369.7 L994.8,354.3 L1010.2,354.3 L1010.2,369.7 Z M1010.4,413.5 L994.7,413.5 L994.7,397.8 L1010.4,397.8 L1010.4,413.5 Z M1010.6,457.3 L994.5,457.3 L994.5,441.2 L1010.6,441.2 L1010.6,457.3 Z M1010.8,501.2 L994.3,501.2 L994.3,484.7 L1010.8,484.7 L1010.8,501.2 Z M1010.9,523.1 L994.2,523.1 L994.2,506.4 L1010.9,506.4 L1010.9,523.1 Z M1011.1,567 L994,567 L994,550 L1011.1,550 L1011.1,567 Z M1011.3,610.8 L993.9,610.8 L993.9,593.4 L1011.3,593.4 L1011.3,610.8 Z M990.1,-135.3 L980.6,-135.3 L980.6,-144.8 L990.1,-144.8 L990.1,-135.3 Z M990.3,-91.4 L980.5,-91.4 L980.5,-101.2 L990.3,-101.2 L990.3,-91.4 Z M990.6,-3.6 L980.1,-3.6 L980.1,-14.1 L990.6,-14.1 L990.6,-3.6 Z M990.7,18.3 L980.1,18.3 L980.1,7.7 L990.7,7.7 L990.7,18.3 Z M990.9,62.2 L979.9,62.2 L979.9,51.2 L990.9,51.2 L990.9,62.2 Z M991,106.1 L979.7,106.1 L979.7,94.8 L991,94.8 L991,106.1 Z M991.1,128.1 L979.6,128.1 L979.6,116.7 L991.1,116.7 L991.1,128.1 Z M991.3,193.9 L979.4,193.9 L979.4,182 L991.3,182 L991.3,193.9 Z M991.4,215.8 L979.3,215.8 L979.3,203.7 L991.4,203.7 L991.4,215.8 Z M991.6,259.7 L979.2,259.7 L979.2,247.3 L991.6,247.3 L991.6,259.7 Z M991.8,303.6 L979,303.6 L979,290.9 L991.7,290.9 L991.7,303.6 L991.8,303.6 Z M991.8,325.5 L978.9,325.5 L978.9,312.6 L991.8,312.6 L991.8,325.5 Z M992.2,394.9 L978.6,394.9 L978.6,381.3 L992.2,381.3 L992.2,394.9 Z M992.3,475.5 L978.4,475.5 L978.4,461.6 L992.3,461.6 L992.3,475.5 Z M992.6,523 L978.2,523 L978.2,508.6 L992.6,508.6 L992.6,523 Z M992.7,566.9 L978,566.9 L978,552.2 L992.7,552.2 L992.7,566.9 Z M992.8,588.9 L977.9,588.9 L977.9,574.1 L992.8,574.1 L992.8,588.9 Z M992.9,610.8 L977.9,610.8 L977.9,595.8 L992.9,595.8 L992.9,610.8 Z M1064.6,-157.2 L1055.3,-157.2 L1055.3,-166.5 L1064.6,-166.5 L1064.6,-157.2 Z M1064.8,-113.3 L1055.1,-113.3 L1055.1,-123 L1064.8,-123 L1064.8,-113.3 Z M1065.4,40.3 L1054.6,40.3 L1054.6,29.5 L1065.4,29.5 L1065.4,40.3 Z M1065.5,84.2 L1054.4,84.2 L1054.4,73.1 L1065.5,73.1 L1065.5,84.2 Z M1065.6,106.1 L1054.3,106.1 L1054.3,94.8 L1065.6,94.8 L1065.6,106.1 Z M1065.8,150 L1054.2,150 L1054.2,138.4 L1065.8,138.4 L1065.8,150 Z M1065.8,171.9 L1054,171.9 L1054,160.1 L1065.8,160.1 L1065.8,171.9 Z M1066,215.8 L1053.9,215.8 L1053.9,203.7 L1066,203.7 L1066,215.8 Z M1066.2,259.7 L1053.8,259.7 L1053.8,247.3 L1066.2,247.3 L1066.2,259.7 Z M1066.4,325.5 L1053.5,325.5 L1053.5,312.6 L1066.4,312.6 L1066.4,325.5 Z M1066.6,369.4 L1053.4,369.4 L1053.4,356.2 L1066.6,356.2 L1066.6,369.4 Z M1066.6,391.4 L1053.2,391.4 L1053.2,378 L1066.6,378 L1066.6,391.4 Z M1066.8,435.3 L1053.1,435.3 L1053.1,421.6 L1066.8,421.6 L1066.8,435.3 Z M1067,479.1 L1052.9,479.1 L1052.9,465.1 L1067,465.1 L1067,479.1 Z M1067.1,523 L1052.7,523 L1052.7,508.6 L1067.1,508.6 L1067.1,523 Z M1067.2,545 L1052.7,545 L1052.7,530.5 L1067.2,530.5 L1067.2,545 Z M1067.4,588.9 L1052.5,588.9 L1052.5,574.1 L1067.4,574.1 L1067.4,588.9 Z M1081.5,-179.1 L1072.3,-179.1 L1072.3,-188.3 L1081.5,-188.3 L1081.5,-179.1 Z M1081.7,-135.3 L1072.2,-135.3 L1072.2,-144.8 L1081.7,-144.8 L1081.7,-135.3 Z M1081.9,-69.4 L1071.9,-69.4 L1071.9,-79.4 L1081.9,-79.4 L1081.9,-69.4 Z M1082.1,-25.5 L1071.8,-25.5 L1071.8,-35.8 L1082.1,-35.8 L1082.1,-25.5 Z M1082.3,18.3 L1071.7,18.3 L1071.7,7.7 L1082.3,7.7 L1082.3,18.3 Z M1082.4,62.2 L1071.4,62.2 L1071.4,51.2 L1082.4,51.2 L1082.4,62.2 Z M1082.5,84.2 L1071.4,84.2 L1071.4,73.1 L1082.5,73.1 L1082.5,84.2 Z M1082.7,128.1 L1071.2,128.1 L1071.2,116.7 L1082.7,116.7 L1082.7,128.1 Z M1082.8,171.9 L1071,171.9 L1071,160.1 L1082.8,160.1 L1082.8,171.9 Z M1082.9,193.9 L1071,193.9 L1071,182 L1082.9,182 L1082.9,193.9 Z M1083.1,237.8 L1070.8,237.8 L1070.8,225.5 L1083.1,225.5 L1083.1,237.8 Z M1083.3,303.6 L1070.5,303.6 L1070.5,290.9 L1083.3,290.9 L1083.3,303.6 Z M1083.5,347.5 L1070.4,347.5 L1070.4,334.4 L1083.5,334.4 L1083.5,347.5 Z M1083.7,413.3 L1070.1,413.3 L1070.1,399.8 L1083.7,399.8 L1083.7,413.3 Z M1083.9,457.2 L1070,457.2 L1070,443.3 L1083.9,443.3 L1083.9,457.2 Z M1084,501.1 L1069.8,501.1 L1069.8,486.9 L1084,486.9 L1084,501.1 Z M1084.1,523 L1069.7,523 L1069.7,508.6 L1084.1,508.6 L1084.1,523 Z M1084.3,566.9 L1069.6,566.9 L1069.6,552.2 L1084.3,552.2 L1084.3,566.9 Z M1084.4,610.8 L1069.4,610.8 L1069.4,595.8 L1084.4,595.8 L1084.4,610.8 Z M969.7,-173.2 L961.6,-173.2 L961.6,-181.3 L969.7,-181.3 L969.7,-173.2 Z M969.8,-129.7 L961.4,-129.7 L961.4,-138.1 L969.8,-138.1 L969.8,-129.7 Z M969.9,-107.9 L961.4,-107.9 L961.4,-116.4 L969.9,-116.4 L969.9,-107.9 Z M970.1,-64.3 L961.3,-64.3 L961.3,-73.1 L970.1,-73.1 L970.1,-64.3 Z M970.2,-20.8 L961.1,-20.8 L961.1,-29.9 L970.2,-29.9 L970.2,-20.8 Z M970.3,1 L961.1,1 L961.1,-8.2 L970.3,-8.2 L970.3,1 Z M970.4,44.6 L960.9,44.6 L960.9,35.1 L970.4,35.1 L970.4,44.6 Z M970.5,66.3 L960.8,66.3 L960.8,56.6 L970.5,56.6 L970.5,66.3 Z M970.7,131.7 L960.6,131.7 L960.6,121.6 L970.7,121.6 L970.7,131.7 Z M970.8,175.2 L960.4,175.2 L960.4,164.8 L970.8,164.8 L970.8,175.2 Z M970.9,197 L960.4,197 L960.4,186.5 L970.9,186.5 L970.9,197 Z M971.1,240.6 L960.3,240.6 L960.3,229.8 L971.1,229.8 L971.1,240.6 Z M971.2,284.1 L960.1,284.1 L960.1,273 L971.2,273 L971.2,284.1 Z M971.3,327.7 L960,327.7 L960,316.3 L971.4,316.3 L971.4,327.7 L971.3,327.7 Z M971.4,349.5 L959.9,349.5 L959.9,338 L971.4,338 L971.4,349.5 Z M971.5,371.2 L959.8,371.2 L959.8,359.5 L971.5,359.5 L971.5,371.2 Z M971.6,393 L959.8,393 L959.8,381.2 L971.6,381.2 L971.6,393 Z M971.7,436.6 L959.6,436.6 L959.6,424.5 L971.7,424.5 L971.7,436.6 Z M971.8,458.3 L959.6,458.3 L959.6,446.1 L971.8,446.1 L971.8,458.3 Z M971.9,501.9 L959.4,501.9 L959.4,489.4 L971.9,489.4 L971.9,501.9 Z M972,523.7 L959.3,523.7 L959.3,511 L972,511 L972,523.7 Z M972.1,545.5 L959.3,545.5 L959.3,532.7 L972.1,532.7 L972.1,545.5 Z M972.1,567.2 L959.1,567.2 L959.1,554.2 L972.1,554.2 L972.1,567.2 Z M972.3,610.8 L959,610.8 L959,597.6 L972.2,597.6 L972.2,610.8 L972.3,610.8 Z M1101.9,22.8 L1092.5,22.8 L1092.5,13.4 L1101.9,13.4 L1101.9,22.8 Z M1102.6,218.8 L1091.9,218.8 L1091.9,208.1 L1102.6,208.1 L1102.6,218.8 Z M1102.8,284.1 L1091.7,284.1 L1091.7,273 L1102.8,273 L1102.8,284.1 Z M1103.1,371.2 L1091.4,371.2 L1091.4,359.5 L1103.1,359.5 L1103.1,371.2 Z M1103.1,393 L1091.3,393 L1091.3,381.2 L1103.1,381.2 L1103.1,393 Z M1103.2,414.8 L1091.2,414.8 L1091.2,402.8 L1103.2,402.8 L1103.2,414.8 Z M1103.3,436.6 L1091.2,436.6 L1091.2,424.5 L1103.3,424.5 L1103.3,436.6 Z M1103.4,480.1 L1091,480.1 L1091,467.7 L1103.4,467.7 L1103.4,480.1 Z M1103.5,501.9 L1091,501.9 L1091,489.4 L1103.5,489.4 L1103.5,501.9 Z M1103.6,545.5 L1090.8,545.5 L1090.8,532.7 L1103.6,532.7 L1103.6,545.5 Z M1103.7,567.2 L1090.7,567.2 L1090.7,554.2 L1103.7,554.2 L1103.7,567.2 Z M1103.8,589 L1090.7,589 L1090.7,575.9 L1103.8,575.9 L1103.8,589 Z M1119.8,-173.2 L1111.7,-173.2 L1111.7,-181.3 L1119.8,-181.3 L1119.8,-173.2 Z M1119.9,-151.5 L1111.7,-151.5 L1111.7,-159.7 L1119.9,-159.7 L1119.9,-151.5 Z M1120.1,-107.9 L1111.6,-107.9 L1111.6,-116.4 L1120.1,-116.4 L1120.1,-107.9 Z M1120.2,-64.3 L1111.4,-64.3 L1111.4,-73.1 L1120.2,-73.1 L1120.2,-64.3 Z M1120.4,1 L1111.2,1 L1111.2,-8.2 L1120.4,-8.2 L1120.4,1 Z M1120.6,44.6 L1111.1,44.6 L1111.1,35.1 L1120.6,35.1 L1120.6,44.6 Z M1120.7,88.1 L1110.9,88.1 L1110.9,78.3 L1120.7,78.3 L1120.7,88.1 Z M1120.8,131.7 L1110.7,131.7 L1110.7,121.6 L1120.8,121.6 L1120.8,131.7 Z M1120.9,153.4 L1110.7,153.4 L1110.7,143.2 L1120.9,143.2 L1120.9,153.4 Z M1121.1,197 L1110.6,197 L1110.6,186.5 L1121.1,186.5 L1121.1,197 Z M1121.2,240.6 L1110.4,240.6 L1110.4,229.8 L1121.2,229.8 L1121.2,240.6 Z M1121.4,305.9 L1110.2,305.9 L1110.2,294.7 L1121.4,294.7 L1121.4,305.9 Z M1121.6,349.5 L1110,349.5 L1110,338 L1121.5,338 L1121.5,349.5 L1121.6,349.5 Z M1121.8,414.8 L1109.8,414.8 L1109.8,402.8 L1121.8,402.8 L1121.8,414.8 Z M1121.9,458.3 L1109.7,458.3 L1109.7,446.1 L1121.9,446.1 L1121.9,458.3 Z M1122.1,501.9 L1109.6,501.9 L1109.6,489.4 L1122.1,489.4 L1122.1,501.9 Z M1122.1,523.7 L1109.4,523.7 L1109.4,511 L1122.1,511 L1122.1,523.7 Z M1122.3,567.2 L1109.3,567.2 L1109.3,554.2 L1122.3,554.2 L1122.3,567.2 Z M1122.4,610.8 L1109.2,610.8 L1109.2,597.6 L1122.4,597.6 L1122.4,610.8 Z M1139.5,240.6 L1128.7,240.6 L1128.7,229.8 L1139.5,229.8 L1139.5,240.6 Z M1139.7,284.1 L1128.6,284.1 L1128.6,273 L1139.7,273 L1139.7,284.1 Z M1139.8,327.7 L1128.4,327.7 L1128.4,316.3 L1139.8,316.3 L1139.8,327.7 Z M1140,371.2 L1128.3,371.2 L1128.3,359.5 L1140,359.5 L1140,371.2 Z M1140,393 L1128.2,393 L1128.2,381.2 L1140,381.2 L1140,393 Z M1140.1,414.8 L1128.1,414.8 L1128.1,402.8 L1140.1,402.8 L1140.1,414.8 Z M1140.3,480.1 L1127.9,480.1 L1127.9,467.7 L1140.3,467.7 L1140.3,480.1 Z M1140.4,501.9 L1127.9,501.9 L1127.9,489.4 L1140.4,489.4 L1140.4,501.9 Z M1140.5,523.7 L1127.8,523.7 L1127.8,511 L1140.5,511 L1140.5,523.7 Z M1140.6,567.2 L1127.6,567.2 L1127.6,554.2 L1140.6,554.2 L1140.6,567.2 Z M1140.7,589 L1127.6,589 L1127.6,575.9 L1140.7,575.9 L1140.7,589 Z M1140.7,610.8 L1127.5,610.8 L1127.5,597.6 L1140.7,597.6 L1140.7,610.8 Z M1155.9,-176.5 L1148.7,-176.5 L1148.7,-183.7 L1155.9,-183.7 L1155.9,-176.5 Z M1156,-154.6 L1148.7,-154.6 L1148.7,-161.9 L1156,-161.9 L1156,-154.6 Z M1156.1,-89 L1148.4,-89 L1148.4,-96.7 L1156.1,-96.7 L1156.1,-89 Z M1156.3,-23.4 L1148.2,-23.4 L1148.2,-31.5 L1156.3,-31.5 L1156.3,-23.4 Z M1156.5,42.2 L1148,42.2 L1148,33.7 L1156.5,33.7 L1156.5,42.2 Z M1156.8,129.7 L1147.8,129.7 L1147.8,120.7 L1156.8,120.7 L1156.8,129.7 Z M1157,195.3 L1147.6,195.3 L1147.6,185.9 L1157,185.9 L1157,195.3 Z M1157.2,282.8 L1147.3,282.8 L1147.3,272.9 L1157.2,272.9 L1157.2,282.8 Z M1157.4,348.4 L1147.1,348.4 L1147.1,338.1 L1157.4,338.1 L1157.4,348.4 Z M1157.5,370.2 L1147.1,370.2 L1147.1,359.8 L1157.5,359.8 L1157.5,370.2 Z M1157.6,392.1 L1147,392.1 L1147,381.6 L1157.5,381.6 L1157.5,392.1 L1157.6,392.1 Z M1157.7,435.8 L1146.9,435.8 L1146.9,425 L1157.7,425 L1157.7,435.8 Z M1157.7,457.7 L1146.8,457.7 L1146.8,446.8 L1157.7,446.8 L1157.7,457.7 Z M1157.8,479.6 L1146.8,479.6 L1146.8,468.6 L1157.8,468.6 L1157.8,479.6 Z M1157.9,523.3 L1146.6,523.3 L1146.6,512 L1157.9,512 L1157.9,523.3 Z M1158,545.2 L1146.6,545.2 L1146.6,533.8 L1158,533.8 L1158,545.2 Z M1158.1,567.1 L1146.6,567.1 L1146.6,555.6 L1158.1,555.6 L1158.1,567.1 Z M1158.2,610.8 L1146.4,610.8 L1146.4,599 L1158.2,599 L1158.2,610.8 Z M949.9,-154.6 L942.6,-154.6 L942.6,-161.9 L949.9,-161.9 L949.9,-154.6 Z M950.7,107.8 L941.8,107.8 L941.8,98.9 L950.7,98.9 L950.7,107.8 Z M950.9,195.3 L941.5,195.3 L941.5,185.9 L950.9,185.9 L950.9,195.3 Z M951.2,282.8 L941.3,282.8 L941.3,272.9 L951.2,272.9 L951.2,282.8 Z M951.4,348.4 L941.1,348.4 L941.1,338.1 L951.4,338.1 L951.4,348.4 Z M951.4,370.2 L941,370.2 L941,359.8 L951.4,359.8 L951.4,370.2 Z M951.6,435.8 L940.8,435.8 L940.8,425 L951.6,425 L951.6,435.8 Z M951.8,479.6 L940.8,479.6 L940.8,468.6 L951.8,468.6 L951.8,479.6 Z M951.8,501.4 L940.6,501.4 L940.6,490.2 L951.8,490.2 L951.8,501.4 Z M952,545.2 L940.6,545.2 L940.6,533.8 L952,533.8 L952,545.2 Z M952,567.1 L940.5,567.1 L940.5,555.6 L952,555.6 L952,567.1 Z M952.1,588.9 L940.4,588.9 L940.4,577.2 L952.1,577.2 L952.1,588.9 Z M1173,149.3 L1165.7,149.3 L1165.7,142 L1173,142 L1173,149.3 Z M1173.5,369.1 L1165.2,369.1 L1165.2,360.8 L1173.5,360.8 L1173.5,369.1 Z M1173.6,413 L1165.1,413 L1165.1,404.5 L1173.6,404.5 L1173.6,413 Z M1173.7,457 L1165,457 L1165,448.3 L1173.7,448.3 L1173.7,457 Z M1173.8,500.9 L1164.9,500.9 L1164.9,492 L1173.8,492 L1173.8,500.9 Z M1173.9,522.9 L1164.9,522.9 L1164.9,513.9 L1173.9,513.9 L1173.9,522.9 Z M1174,588.8 L1164.7,588.8 L1164.7,579.5 L1174,579.5 L1174,588.8 Z M1191.6,-136.4 L1185.6,-136.4 L1185.6,-142.4 L1191.6,-142.4 L1191.6,-136.4 Z M1191.7,-92.5 L1185.5,-92.5 L1185.5,-98.7 L1191.7,-98.7 L1191.7,-92.5 Z M1191.8,-48.5 L1185.4,-48.5 L1185.4,-54.9 L1191.8,-54.9 L1191.8,-48.5 Z M1191.9,-4.5 L1185.3,-4.5 L1185.3,-11.1 L1191.9,-11.1 L1191.9,-4.5 Z M1191.9,17.4 L1185.2,17.4 L1185.2,10.7 L1191.9,10.7 L1191.9,17.4 Z M1192.1,83.4 L1185.1,83.4 L1185.1,76.4 L1192.1,76.4 L1192.1,83.4 Z M1192.3,171.3 L1184.9,171.3 L1184.9,163.9 L1192.3,163.9 L1192.3,171.3 Z M1192.4,237.2 L1184.7,237.2 L1184.7,229.5 L1192.4,229.5 L1192.4,237.2 Z M1192.6,303.1 L1184.6,303.1 L1184.6,295.1 L1192.6,295.1 L1192.6,303.1 Z M1192.7,347.1 L1184.5,347.1 L1184.5,338.9 L1192.7,338.9 L1192.7,347.1 Z M1192.8,391 L1184.4,391 L1184.4,382.6 L1192.8,382.6 L1192.8,391 Z M1192.9,457 L1184.2,457 L1184.2,448.3 L1192.9,448.3 L1192.9,457 Z M1193.1,500.9 L1184.2,500.9 L1184.2,492 L1193.1,492 L1193.1,500.9 Z M1193.1,522.9 L1184.1,522.9 L1184.1,513.9 L1193.1,513.9 L1193.1,522.9 Z M1193.2,544.9 L1184.1,544.9 L1184.1,535.8 L1193.2,535.8 L1193.2,544.9 Z M1193.2,566.8 L1184,566.8 L1184,557.6 L1193.2,557.6 L1193.2,566.8 Z M1193.3,610.8 L1183.9,610.8 L1183.9,601.4 L1193.3,601.4 L1193.3,610.8 Z M932.3,-114.4 L926.2,-114.4 L926.2,-120.5 L932.3,-120.5 L932.3,-114.4 Z M932.4,-70.5 L926.1,-70.5 L926.1,-76.8 L932.4,-76.8 L932.4,-70.5 Z M932.6,-4.5 L926,-4.5 L926,-11.1 L932.6,-11.1 L932.6,-4.5 Z M933,171.3 L925.6,171.3 L925.6,163.9 L933,163.9 L933,171.3 Z M933,193.2 L925.5,193.2 L925.5,185.7 L933,185.7 L933,193.2 Z M933.2,259.2 L925.4,259.2 L925.4,251.4 L933.2,251.4 L933.2,259.2 Z M933.4,347.1 L925.2,347.1 L925.2,338.9 L933.4,338.9 L933.4,347.1 Z M933.4,369.1 L925.1,369.1 L925.1,360.8 L933.4,360.8 L933.4,369.1 Z M933.5,413 L925,413 L925,404.5 L933.5,404.5 L933.5,413 Z M933.6,457 L924.9,457 L924.9,448.3 L933.6,448.3 L933.6,457 Z M933.7,478.9 L924.9,478.9 L924.9,470.1 L933.7,470.1 L933.7,478.9 Z M933.8,522.9 L924.8,522.9 L924.8,513.9 L933.8,513.9 L933.8,522.9 Z M933.9,566.8 L924.7,566.8 L924.7,557.6 L933.9,557.6 L933.9,566.8 Z M934,610.8 L924.6,610.8 L924.6,601.4 L934,601.4 L934,610.8 Z M914.6,-4.5 L908,-4.5 L908,-11.1 L914.6,-11.1 L914.6,-4.5 Z M914.7,17.4 L908,17.4 L908,10.7 L914.7,10.7 L914.7,17.4 Z M914.8,83.4 L907.8,83.4 L907.8,76.4 L914.8,76.4 L914.8,83.4 Z M914.9,105.3 L907.8,105.3 L907.8,98.2 L914.9,98.2 L914.9,105.3 Z M915.1,193.2 L907.6,193.2 L907.6,185.7 L915.1,185.7 L915.1,193.2 Z M915.1,215.2 L907.5,215.2 L907.5,207.6 L915.1,207.6 L915.1,215.2 Z M915.3,281.1 L907.4,281.1 L907.4,273.2 L915.3,273.2 L915.3,281.1 Z M915.4,325.1 L907.3,325.1 L907.3,317 L915.4,317 L915.4,325.1 Z M915.4,347.1 L907.2,347.1 L907.2,338.9 L915.4,338.9 L915.4,347.1 Z M915.9,544.9 L906.8,544.9 L906.8,535.8 L915.9,535.8 L915.9,544.9 Z M916,588.8 L906.7,588.8 L906.7,579.5 L916,579.5 L916,588.8 Z M1226.8,105.5 L1223,105.5 L1223,101.7 L1226.8,101.7 L1226.8,105.5 Z M1226.9,171.4 L1222.9,171.4 L1222.9,167.4 L1226.9,167.4 L1226.9,171.4 Z M1226.9,193.4 L1222.8,193.4 L1222.8,189.3 L1226.9,189.3 L1226.9,193.4 Z M1227,259.3 L1222.8,259.3 L1222.8,255.1 L1227,255.1 L1227,259.3 Z M1227,303.2 L1222.7,303.2 L1222.7,298.9 L1227,298.9 L1227,303.2 Z M1227.1,347.2 L1222.6,347.2 L1222.6,342.7 L1227.1,342.7 L1227.1,347.2 Z M1227.2,413.1 L1222.6,413.1 L1222.6,408.5 L1227.2,408.5 L1227.2,413.1 Z M1227.2,479 L1222.4,479 L1222.4,474.2 L1227.2,474.2 L1227.2,479 Z M1227.3,522.9 L1222.4,522.9 L1222.4,518 L1227.3,518 L1227.3,522.9 Z M1227.4,566.9 L1222.4,566.9 L1222.4,561.9 L1227.4,561.9 L1227.4,566.9 Z M1227.4,610.8 L1222.3,610.8 L1222.3,605.7 L1227.4,605.7 L1227.4,610.8 Z M1265.9,191 L1261.8,191 L1261.8,186.9 L1265.9,186.9 L1265.9,191 Z M1265.9,235.2 L1261.7,235.2 L1261.7,231 L1265.9,231 L1265.9,235.2 Z M1266,301.5 L1261.7,301.5 L1261.7,297.2 L1266,297.2 L1266,301.5 Z M1266.1,367.8 L1261.6,367.8 L1261.6,363.3 L1266.1,363.3 L1266.1,367.8 Z M1266.2,412 L1261.6,412 L1261.6,407.4 L1266.2,407.4 L1266.2,412 Z M1266.2,456.1 L1261.5,456.1 L1261.5,451.4 L1266.2,451.4 L1266.2,456.1 Z M1266.3,522.4 L1261.4,522.4 L1261.4,517.5 L1266.3,517.5 L1266.3,522.4 Z M1266.3,566.6 L1261.3,566.6 L1261.3,561.6 L1266.3,561.6 L1266.3,566.6 Z M1266.4,610.8 L1261.3,610.8 L1261.3,605.7 L1266.4,605.7 L1266.4,610.8 Z M894.8,-96.2 L891.5,-96.2 L891.5,-99.5 L894.8,-99.5 L894.8,-96.2 Z M894.8,-74.1 L891.4,-74.1 L891.4,-77.5 L894.8,-77.5 L894.8,-74.1 Z M894.9,-7.8 L891.3,-7.8 L891.3,-11.4 L894.9,-11.4 L894.9,-7.8 Z M894.9,14.3 L891.3,14.3 L891.3,10.7 L894.9,10.7 L894.9,14.3 Z M895,58.5 L891.3,58.5 L891.3,54.8 L895,54.8 L895,58.5 Z M895,80.6 L891.2,80.6 L891.2,76.8 L895,76.8 L895,80.6 Z M895.1,102.7 L891.3,102.7 L891.3,98.9 L895.1,98.9 L895.1,102.7 Z M895.2,191 L891.1,191 L891.1,186.9 L895.2,186.9 L895.2,191 Z M895.2,213.1 L891.1,213.1 L891.1,209 L895.2,209 L895.2,213.1 Z M895.3,279.4 L891,279.4 L891,275.1 L895.3,275.1 L895.3,279.4 Z M895.3,323.6 L890.9,323.6 L890.9,319.2 L895.3,319.2 L895.3,323.6 Z M895.5,456.1 L890.8,456.1 L890.8,451.4 L895.5,451.4 L895.5,456.1 Z M895.6,500.3 L890.8,500.3 L890.8,495.5 L895.6,495.5 L895.6,500.3 Z M895.6,522.4 L890.7,522.4 L890.7,517.5 L895.6,517.5 L895.6,522.4 Z M895.6,566.6 L890.6,566.6 L890.6,561.6 L895.6,561.6 L895.6,566.6 Z M895.7,610.8 L890.6,610.8 L890.6,605.7 L895.7,605.7 L895.7,610.8 Z M1301.8,345.5 L1298.7,345.5 L1298.7,342.4 L1301.8,342.4 L1301.8,345.5 Z M1301.8,389.7 L1298.6,389.7 L1298.6,386.5 L1301.8,386.5 L1301.8,389.7 Z M1301.9,478.2 L1298.6,478.2 L1298.6,474.9 L1301.9,474.9 L1301.9,478.2 Z M1301.9,566.6 L1298.4,566.6 L1298.4,563.1 L1301.9,563.1 L1301.9,566.6 Z M1302,588.7 L1298.5,588.7 L1298.5,585.2 L1302,585.2 L1302,588.7 Z M857.1,235 L854.2,235 L854.2,232.1 L857.1,232.1 L857.1,235 Z M857.2,301.3 L854.2,301.3 L854.2,298.3 L857.2,298.3 L857.2,301.3 Z M857.2,323.4 L854.2,323.4 L854.2,320.4 L857.2,320.4 L857.2,323.4 Z M857.2,367.6 L854.1,367.6 L854.1,364.5 L857.2,364.5 L857.2,367.6 Z M857.3,456.1 L854,456.1 L854,452.8 L857.3,452.8 L857.3,456.1 Z M857.3,478.2 L854,478.2 L854,474.9 L857.3,474.9 L857.3,478.2 Z M857.3,500.3 L854,500.3 L854,497 L857.3,497 L857.3,500.3 Z M857.4,566.6 L853.9,566.6 L853.9,563.1 L857.4,563.1 L857.4,566.6 Z M857.4,588.7 L853.9,588.7 L853.9,585.2 L857.4,585.2 L857.4,588.7 Z M1340.1,456.7 L1336.8,456.7 L1336.8,453.4 L1340.1,453.4 L1340.1,456.7 Z M1340.2,544.7 L1336.8,544.7 L1336.8,541.3 L1340.2,541.3 L1340.2,544.7 Z M1340.2,610.8 L1336.7,610.8 L1336.7,607.3 L1340.2,607.3 L1340.2,610.8 Z M812.8,346.6 L809.7,346.6 L809.7,343.5 L812.8,343.5 L812.8,346.6 Z M812.9,434.6 L809.7,434.6 L809.7,431.4 L812.9,431.4 L812.9,434.6 Z M812.9,456.7 L809.6,456.7 L809.6,453.4 L812.9,453.4 L812.9,456.7 Z M813,500.7 L809.7,500.7 L809.7,497.4 L813,497.4 L813,500.7 Z M813,522.7 L809.6,522.7 L809.6,519.3 L813,519.3 L813,522.7 Z M813,566.8 L809.5,566.8 L809.5,563.3 L813,563.3 L813,566.8 Z M813.1,588.8 L809.6,588.8 L809.6,585.3 L813.1,585.3 L813.1,588.8 Z M813.1,610.8 L809.6,610.8 L809.6,607.3 L813.1,607.3 L813.1,610.8 Z" id="Shape" transform="translate(1074.600000, 605.900000) rotate(-270.000000) translate(-1074.600000, -605.900000) "></path>
                </g>
            </g>
        </g>
    </g>
</svg>